# xmcd
#
# Track frame offsets:
#	183
#	18693
#	40538
#	57495
#
# Disc length: 975 seconds
#
# Revision: 0
# Processed by: cddbd v1.5.1PL0 Copyright (c) Steve Scherf et al.
# Submitted via: audiograbber 1.83.01
#
DISCID=2d03cd04
DTITLE=The Neville Brothers - Fly Like an Eagle
DYEAR=1992
DGENRE=Cajun
TTITLE0=Fly Like An Eagle (7"Remix)
TTITLE1=Fly Like An Eagle (Album Version
TTITLE2=On The Other Side Of Paradise
TTITLE3=Exerpts Album Family Groove, True Love, One More Day, Family Groove
EXTD=A&M Records\nCompact Disc Single\n390v700-2
EXTT0=
EXTT1=
EXTT2=
EXTT3=
PLAYORDER=
